<svg xmlns="http://www.w3.org/2000/svg" fill="none" viewBox="0 0 200 58"><path fill="#000" d="M199.446 29.924c.292 0 .523.229.523.519H200v.519l-7.091 2.565a.83.83 0 0 0-.121.035.838.838 0 0 1-.079.026l-.154.06a4.17 4.17 0 0 0-2.646 3.879v17.572c-1.43.596-2.907 1.1-4.445 1.496-4.107 1.07-8.245 1.16-12.537 1.16-1.6 0-3.184-.076-4.753-.183-15.69-.687-28.196-13.526-28.196-29.267 0-.87.031-1.74.108-2.595.446-4.504 2.123-8.672 4.661-12.153C150.592 5.771 159.76.565 170.22.077A81.893 81.893 0 0 1 173.573 0c4.184 0 8.276.382 12.245 1.1v14.06h-.677a.523.523 0 0 1-.477-.32l-3.03-8.245c-3.431-1.725-7.522-2.687-11.414-2.687-1.892 0-2.984.245-4.384.642a19.119 19.119 0 0 0-8.845 5.053c-4.338 4.367-7.091 10.305-7.291 16.886a52.773 52.773 0 0 0-.062 2.198 28.027 28.027 0 0 0 7.245 18.84 14.408 14.408 0 0 0 3.246 2.672 25.33 25.33 0 0 0 19.982 2.717 2.086 2.086 0 0 0 1.553-2.015V34.595l-9.737-3.511a.509.509 0 0 1-.353-.489v-.671h27.872ZM131.442 53.1l6.737 2.442c.2.061.354.26.37.473v.672h-27.873a.517.517 0 0 1-.523-.52v-.518l10.075-3.634V5.817l-9.737-3.512a.51.51 0 0 1-.354-.488v-.672h27.873c.292 0 .523.23.523.52v.518l-8.583 3.1a2.09 2.09 0 0 0-1.492 2v41.831a4.195 4.195 0 0 0 2.984 3.985ZM107.845 1.145H83.034v.672c0 .229.138.412.353.488l9.737 3.512v33.511c0 7.68-6.275 13.924-14.028 13.924s-13.952-4.87-13.952-15.16V7.298c0-.947.63-1.74 1.492-2l8.23-2.977a.53.53 0 0 0 .353-.489V1.16H47.347a.517.517 0 0 0-.523.52v.519l10.075 3.633v32.275c0 10.977 8.968 19.878 20.028 19.878l.53.007c.231.004.462.008.531.008 11.06 0 20.32-8.9 20.32-19.878V8.718c.016-1.74 1.446-3.36 2.985-3.985l7.091-2.565v-.504a.53.53 0 0 0-.539-.519ZM26.688 1.145c3.507 0 6.876.489 10.091 1.39 5.8 1.71 10.045 7.038 10.03 13.343 0 3.847-1.585 7.343-4.123 9.863a18.575 18.575 0 0 1-7.568 4.55 37.176 37.176 0 0 1-10.66 1.556c-2.092 0-4.138-.168-6.138-.504V48.87c0 1.756 1.092 3.252 2.646 3.878l7.091 2.565c.2.076.339.26.339.488v.672H.523A.517.517 0 0 1 0 55.954v-.519l10.09-3.664V5.817L.355 2.305A.509.509 0 0 1 0 1.817v-.672h26.688Zm-3.045 27.16c2.615 0 5.122-.503 7.414-1.42 4.215-1.679 7.168-5.755 7.168-10.534 0-4.763-2.969-8.855-7.168-10.534a16.835 16.835 0 0 0-6.584-1.328c-2.153 0-4.245.397-6.137 1.13v21.984c1.676.458 3.476.702 5.307.702Z"/></svg>