<svg xmlns="http://www.w3.org/2000/svg" version="1.0" width="260.000000pt" height="260.000000pt" viewBox="0 0 260.000000 260.000000" preserveAspectRatio="xMidYMid meet">
<metadata>
Created by potrace 1.14, written by Peter Selinger 2001-2017
</metadata>
<g transform="translate(0.000000,260.000000) scale(0.100000,-0.100000)" fill="#000000" stroke="none">
<path d="M1223 2584 c-52 -19 -115 -87 -131 -143 -23 -74 0 -157 62 -226 50 -56 91 -137 117 -230 51 -186 8 -382 -117 -534 -30 -36 -56 -80 -62 -103 -36 -139 52 -264 192 -275 97 -8 174 36 215 122 40 85 25 163 -50 256 -103 129 -134 220 -134 394 1 77 6 117 25 174 23 72 75 163 119 209 99 103 68 281 -61 348 -42 22 -127 26 -175 8z m143 -1211 c54 -35 55 -123 3 -167 -48 -41 -122 -31 -155 20 -68 102 49 214 152 147z"/>
<path d="M589 2375 c-74 -23 -129 -93 -129 -162 0 -102 50 -160 170 -196 244 -75 313 -223 239 -511 -16 -61 -29 -129 -29 -151 0 -23 -5 -46 -11 -52 -16 -16 -4 -43 20 -43 25 0 33 23 16 47 -23 29 -18 53 37 189 49 122 52 134 53 219 0 82 -3 96 -33 157 -51 104 -112 150 -266 203 -104 35 -128 59 -129 127 -1 57 25 92 83 111 111 36 251 -14 356 -126 103 -109 155 -236 155 -374 0 -90 -23 -156 -89 -260 -80 -124 -96 -166 -99 -260 -2 -95 14 -162 58 -234 64 -104 188 -167 320 -163 206 6 357 163 361 375 2 91 -22 160 -92 268 -87 133 -95 157 -95 276 0 78 5 114 23 167 57 165 210 309 358 335 125 23 214 -22 214 -110 0 -54 -43 -94 -136 -126 -107 -37 -159 -67 -199 -113 -95 -110 -113 -238 -61 -432 14 -54 28 -112 31 -130 3 -17 8 -42 10 -56 3 -14 7 -64 10 -111 12 -218 -95 -375 -295 -435 -29 -9 -92 -15 -144 -16 -239 -1 -441 130 -505 328 -31 99 -31 184 3 324 40 161 41 284 3 356 -60 117 -198 171 -318 125 -76 -29 -132 -116 -132 -209 0 -74 17 -120 89 -227 73 -111 80 -125 89 -182 3 -21 7 -48 9 -58 2 -11 7 -49 10 -85 35 -344 332 -580 736 -584 128 -1 180 5 272 34 252 78 417 324 394 586 -7 80 -7 77 -36 199 -38 159 -40 169 -42 252 -2 89 15 135 63 177 86 73 202 66 261 -16 18 -27 23 -46 23 -98 -1 -74 -11 -99 -91 -208 -85 -117 -101 -174 -109 -392 -5 -144 -29 -224 -94 -322 -49 -72 -105 -127 -185 -181 -46 -31 -179 -84 -228 -92 -18 -3 -55 -9 -83 -13 -94 -15 -277 -5 -414 23 -48 9 -157 48 -213 76 -79 38 -135 78 -191 136 -118 121 -169 251 -182 460 -8 135 -48 194 -134 195 -47 0 -88 -30 -119 -87 -24 -46 -25 -193 -1 -285 99 -384 504 -686 974 -727 128 -11 351 -4 398 12 7 3 25 7 41 9 64 11 187 59 259 102 240 140 373 392 390 740 7 138 36 188 96 169 50 -16 60 -159 25 -365 -3 -19 -18 -72 -33 -117 -126 -370 -460 -593 -926 -619 -132 -7 -167 -19 -190 -64 -20 -39 -19 -69 5 -108 38 -62 122 -68 174 -11 24 28 28 38 23 75 -4 43 -4 44 27 45 17 0 40 2 51 4 11 2 40 7 65 10 57 8 189 41 243 62 348 130 559 381 632 753 14 67 17 241 6 288 -32 132 -172 158 -231 43 -22 -44 -27 -75 -35 -206 -22 -391 -220 -642 -581 -736 -79 -21 -112 -24 -284 -24 -205 0 -281 10 -421 56 -283 93 -507 285 -613 527 -73 167 -66 369 13 389 53 13 77 -28 85 -147 8 -121 14 -154 37 -223 83 -247 267 -404 569 -486 102 -28 132 -31 301 -36 117 -3 164 0 232 15 337 74 557 308 573 610 11 208 14 240 34 291 11 30 41 81 66 114 25 33 60 88 76 123 65 134 24 272 -96 328 -90 42 -191 24 -271 -49 -89 -80 -103 -201 -49 -431 55 -239 61 -322 29 -430 -71 -237 -268 -367 -560 -368 -320 -1 -583 152 -666 388 -11 30 -26 106 -34 167 -23 173 -31 199 -101 303 -83 123 -98 160 -92 230 8 94 68 147 165 147 43 0 62 -5 96 -29 96 -68 112 -175 58 -401 -33 -139 -35 -230 -6 -329 71 -247 311 -400 608 -388 233 10 398 140 453 357 23 88 14 250 -22 392 -9 33 -17 67 -19 75 -1 8 -8 35 -15 59 -23 85 -10 209 28 270 45 73 75 94 202 140 100 37 146 71 170 123 28 63 12 146 -37 190 -70 64 -222 69 -349 12 -57 -25 -148 -100 -191 -155 -98 -127 -139 -246 -136 -396 2 -90 26 -160 91 -259 91 -140 97 -156 96 -259 0 -102 -18 -155 -75 -220 -68 -77 -208 -115 -316 -86 -134 36 -226 172 -219 323 3 74 22 120 99 241 70 111 90 175 90 292 -1 286 -239 558 -493 563 -30 1 -76 -5 -101 -13z"/>
</g>
</svg>